/* XPM */
static char *result[] = {
/* columns rows colors chars-per-pixel */
"64 64 240 2 ",
"   c #15150E",
".  c #1C1B15",
"X  c #1F1F1B",
"o  c #171613",
"O  c #0C0A06",
"+  c #201F1D",
"@  c #281E1C",
"#  c #231708",
"$  c #21211E",
"%  c #2A251B",
"&  c #372B12",
"*  c #211F20",
"=  c #1F2320",
"-  c #212121",
";  c #292824",
":  c #342D27",
">  c #34332C",
",  c #3A3529",
"<  c #3B3834",
"1  c #4E3218",
"2  c #623E1C",
"3  c #483627",
"4  c #543A25",
"5  c #453D37",
"6  c #564327",
"7  c #45423B",
"8  c #4B4536",
"9  c #554A34",
"0  c #5A5139",
"q  c #4D422E",
"w  c #694829",
"e  c #69593A",
"r  c #795A35",
"t  c #705031",
"y  c #7B673A",
"u  c #684317",
"i  c #4D4B42",
"p  c #4C4A45",
"a  c #534F44",
"s  c #56534A",
"d  c #5B554A",
"f  c #5A5546",
"g  c #5E5A50",
"h  c #655A49",
"j  c #635D52",
"k  c #766947",
"l  c #6A6657",
"z  c #736C5B",
"x  c #78715E",
"c  c #6C664D",
"v  c #796F61",
"b  c #7B7562",
"n  c #7C7862",
"m  c #925B1D",
"M  c #97601F",
"N  c #8D5A25",
"B  c #915C28",
"V  c #896326",
"C  c #9A652A",
"Z  c #9B6426",
"A  c #8D6739",
"S  c #946437",
"D  c #9B743A",
"F  c #A8752C",
"G  c #A46E36",
"H  c #A5743B",
"J  c #A87937",
"K  c #B67D33",
"L  c #B07828",
"P  c #977847",
"I  c #857759",
"U  c #88754E",
"Y  c #A47C45",
"T  c #BB7D40",
"R  c #837C65",
"E  c #877C68",
"W  c #B9862E",
"Q  c #AB823D",
"!  c #BD8233",
"~  c #BB8C3B",
"^  c #B48638",
"/  c #C28C3A",
"(  c #C08934",
")  c #C5943B",
"_  c #D4A43E",
"`  c #988558",
"'  c #9A864C",
"]  c #AC8748",
"[  c #B78A46",
"{  c #BD9A4C",
"}  c #BA9448",
"|  c #A98D56",
" . c #AC9959",
".. c #BC9C54",
"X. c #BD9D5B",
"o. c #B49658",
"O. c #AD904C",
"+. c #BAA25A",
"@. c #8B846B",
"#. c #888266",
"$. c #978B6A",
"%. c #96916E",
"&. c #988C72",
"*. c #9A9373",
"=. c #888476",
"-. c #A38F63",
";. c #AD9B6B",
":. c #A99668",
">. c #B29D6B",
",. c #B89B68",
"<. c #A39371",
"1. c #AA9B72",
"2. c #AB9776",
"3. c #B29971",
"4. c #BDA464",
"5. c #BDA56B",
"6. c #BEAA6C",
"7. c #B5A268",
"8. c #AEA171",
"9. c #A9A37B",
"0. c #BBA572",
"q. c #BEA972",
"w. c #B6A578",
"e. c #BEB17E",
"r. c #C49643",
"t. c #CC9C43",
"y. c #C3954D",
"u. c #C29A4C",
"i. c #CB9C4A",
"p. c #C99745",
"a. c #D39D47",
"s. c #C49E53",
"d. c #CA9E52",
"f. c #C19F59",
"g. c #C99E5D",
"h. c #C28E42",
"j. c #CDA24C",
"k. c #C6A14B",
"l. c #D1A443",
"z. c #D2A34C",
"x. c #D7A749",
"c. c #C5A155",
"v. c #CBA354",
"b. c #C4A35C",
"n. c #CBA45C",
"m. c #CCA95D",
"M. c #C4AB5C",
"N. c #D3A554",
"B. c #D4AC5C",
"V. c #D7AA56",
"C. c #D7B047",
"Z. c #C3A563",
"A. c #C5A966",
"S. c #CBAB64",
"D. c #C2A66B",
"F. c #C3AA6C",
"G. c #CBAC6B",
"H. c #CCA766",
"J. c #D1AC64",
"K. c #D2AC6B",
"L. c #D3A863",
"P. c #CDB26E",
"I. c #C7B267",
"U. c #D4B26B",
"Y. c #DBB36C",
"T. c #D9B669",
"R. c #C4AC73",
"E. c #CAAF74",
"W. c #C3AD7B",
"Q. c #C8AC77",
"!. c #D2AF72",
"~. c #C5B274",
"^. c #CCB374",
"/. c #C5B17C",
"(. c #CBB37B",
"). c #CFB87A",
"_. c #D3B473",
"`. c #D5B976",
"'. c #D3BB7B",
"]. c #DBBC7C",
"[. c #D9B876",
"{. c #E2BA78",
"}. c #E1AD61",
"|. c #D7A760",
" X c #DFC27E",
".X c #D5C07D",
"XX c #E3C17A",
"oX c #989382",
"OX c #A39D88",
"+X c #AAA78D",
"@X c #B9AB85",
"#X c #B7AF95",
"$X c #BDB7A9",
"%X c #C5B383",
"&X c #CAB584",
"*X c #CCB984",
"=X c #C5B589",
"-X c #CCBB8B",
";X c #C8B98C",
":X c #D3BC83",
">X c #D2BD8A",
",X c #D7B986",
"<X c #CBBE92",
"1X c #C9BC98",
"2X c #C9B287",
"3X c #E6BC85",
"4X c #C2BDA0",
"5X c #CDC28C",
"6X c #DDC282",
"7X c #D3C18C",
"8X c #DAC38C",
"9X c #DAC889",
"0X c #CFC193",
"qX c #CDC29C",
"wX c #CFC89E",
"eX c #D3C293",
"rX c #DCC591",
"tX c #D2C59A",
"yX c #D6C99E",
"uX c #D9C99A",
"iX c #DBD19E",
"pX c #E2C384",
"aX c #E8C589",
"sX c #E1CA97",
"dX c #E3D39F",
"fX c #CCC7A5",
"gX c #D4CAA3",
"hX c #DBCCA3",
"jX c #D4C9A7",
"kX c #DDD2A7",
"lX c #D8D3B6",
"zX c #E2D4A4",
"xX c #E7D8AA",
"cX c #E7DCB7",
"vX c #EAE3BD",
"bX c #EBE2B7",
"nX c #EBDDC0",
"mX c #EBE4C2",
"MX c #E9E9C9",
"NX c #F1E5CA",
/* pixels */
"- - - - - - - - - - - - - - - - - - - - - - * - - - - - - - - - - - - - - - - - - - - - - - - - - - - - - - - = - - - - - - - - ",
"- - - - - - - - - - - - - - - - - - - - - - - * - - - - - - - - - - - - - - - - - - - - - - - - - - - - - - - - - - - - - - - - ",
"- - - - - - - - - - - - - - - - - - - - - - - = - $ - $ - - - - - - - - - - - - - - - - - - - - - - - - = * - - - - - - - - - - ",
"- - - - - - - - - - - - - - - - - - - - = - - - - - - - - - - - - - - - - - - - - - - - - - - - - - - - - - - - - - - - - - - - ",
"- - - - - - - - - - - - - - - - - - - - - - - @ - - = - - * - - - - - - - - - - - - - - - - - - - - = - - - - - - - - - - - - - ",
"- - - - - - - - - - - - - - - - - - - - - + s &.a - - = - * - - - - - - - - - - - - - - - - - - - - = * - - - - - - - - - - - - ",
"- - - - - - - - - - - - - - - - - - - - - - 2.v.5.$ $ = - - - - - - - - - - - - - - - - - - - - - - - = * * = - - - - - - - - - ",
"- - - - - - - - - - - - - - - - - $ - - * - ,._ ^ g $ $ - - - - - - - - - - - - - - - - - - - - - * l v * = * - - - - - - - - - ",
"- - - - - - - - - - - - - - - - - - - - - $ D.n.! +.= * - $ - - - - - - - - - - - - - - - $ = = z g.o.h.,.= - - - - - - - - - - ",
"- - - - - - - - - - - - - - - - - - - - - + G.v.! ~ z * $ - - - - - - - - = = * = * - - - - * 5 ;.[ ] F G l - - - - - - - - - - ",
"- - - - - - - - - - - - - - - - - - - - - - H.N.! ! +.* - - * - - - - - - - - - - - * - = - i ,...] ] Z M 3.- - - - - - - - - - ",
"- - - - - - - - - - - - - - - - - - - - - + H.d.K K W 0.- * - - - - - - - - - - * - - = = i 5.} ..o.[ C M Y + - - - - - - - - - ",
"- - - - - - - - - - - - - - - - - - - - - + L.z.K ! ( ~ d * - - - - - - - - - - - - = - > :.s.Q ] ` ] D Z Z + - - - - - - - - - ",
"- - - - - - - - - - - - - - - - - - - - - + n.) ( L ! / { h $ - = - - * - - * = * = @ f ,.} Y O.] P D P H C > - - - - - - - - - ",
"- - - - - - - - - - - - - - - - - - - - - + d./ ) N.p.i.l.g.,.3.d 7 > > ; * * * * - z o.h.Z ^ ] P A V P J G j - - - - - - - - - ",
"- - - - - - - - - - - ; - - - - - - - - - + u./ z.}.x.C.z.x.a.l.t.z.V.z.i.i.d.N.Z.m.c.Q Y D ] D U S S A H F v - - - - - - - - - ",
"- - - - - - - - = - $ * - - - * - - * - * @.L.}.T.J.B.N.l.a.a.j.x.z.N.N.z.z.z.t.K W ^ H S J D r w w w B G G v - - - - - - - - - ",
"- - - - - - - - - - - - - - - - - = * 5 F.J.{.T.Y.J.B.j.p.) ) t.t.j.V.B.B.N.j.r./ L J N C K J N 1 4 2 S J C l - - - - - - - - - ",
"- - - - - - - - - - - - - - - - * + $.J.3XXX{.].[.U.m.p./ / ) ) u.v.n.n.v.N.j.p.a.^ m N H ^ J A 4 3 t P F ^ d - - - - - - - - - ",
"- - - - - - - - - - - - $ - - - d F.K.{.Y.6XaXpX,X_.n.} ~ ) ) u.{ s.c...c.v.v.v.u.i.Q C H J P w & 3 A ] ^ [ X - - - - - - - - - ",
"- - - - - - - - - - - - - - + l K.XXT.{.{.Y.aXdX9X_.v.r.~ r.u.s.X.X.+.b.c.c.c.c.g.j.i.J J Y w : 3 2 D ] [ ,.+ - - - - - - - - - ",
"- - - - - - - - $ - - - - $ z D.aXpXXXT.T.aXpXpX9XP.d.[ ~ u.c.Z.6.4.D.Z.+.{ u.v.v.d.v.z.Q S 1 1 4 A ] O.H 2.- - - - - - - - - - ",
"- - - - - - - - - - - - - z 5.{.pXpX,X{.`.'.9X,X`.S.u.~ } c.F.(.(.(.R.,...{ { c.v.n.n.j.j.Y A u S H J V Z 2.* - - - - - - - - - ",
"- - - - - - - - - - - - d 6.{.aXXXXX`.).:X(./.9XP...[ ~ } +.^.,X*X&XQ.Z.o.{ { k.v.c.S.m.N.a.~ H Y ~ [ H [ >.* * - - - - - - - - ",
"- - - - - - - - - - - - F.aXpX9X3X!.6 % 9 %.&XU.Z.{ u.~ { P.7X-X(.'.G.B.s.} [ k.c.n.n.m.J.B.V.l.! K K F G p.- - - - - - - - - - ",
"- - - - - - - - - - - 7 5.xXxXbXaX#.x i i k ^.S.m.c.{ X.4.(.&X>XQ.&X).S.B.u.} { ..c.c.Z.J.T.T.B.i.( L Z Z [ $ - - - - - - - - - ",
"- - - - - - - - - = - =.zXvXNXmXhX+X5 > % r S.J.T.U.S.E.F.^.(.W.w.` U :...s.u.y.u.c.c.S.S.K.U.U.B.p.W Z m K - - - - - - - - - - ",
"- - - - - - - - * * * w.vXMXMXxX0X&.g 8 & o.J.Y.{.J.U.Y.S.+.5.:.0 9 # & y O.s.u.c.n.H.S.S.n.L.J.B.a./ G N L d - - - - - - - - - ",
"- - - - - - - - - - i ;.NXMXmXaXrX-.e e X.Y.Y.T._.[.{.v.} O.r & =.=.a $ # r O.k.b.H.H.L.S.c.m.m.m.z.t.~ C L R - - - - - - - - - ",
"- - - - - - - - - - x xXNXMXbXXX^.^.D.'.XXJ.{.aX6X].Y.T.[ S 3 7 OX> = ; @ 4 | { Z.G.S.S.S.m.m.m.M.v.i.) K ( $.- - - - - - - - - ",
"- - - - - - - - - * #.mXMXmXxX6X[.6X XpXT.[.pX,XXX].U.T.y.Y 6 > n < $ $ 9 $.^._.).'.^.^.P.P.^.G.F.S.i.) h.h.*.- - - - - - - - - ",
"- - - - - - ; - - * @.mXMXMXcXuX XaXpX XaXaX X6X{.].[.U.r...| c e f g c 8.*X(.,XeX9X7X*X:X:X:X(.).!.n.C.p.p.%.- - - - ; - - - - ",
"- - - - - - - - = g l vXvXvXvXcXzXeX=X>X*X:X).pX8X].`.U.n.Z.F.4.w.7.7.G.E.(.>X>XuXhXuX<X-X>X7X>X*X(.S.M.d.) E + * * - - - - - - ",
"- - - - - - - - = n vXvXvXvXlX+XR E x x $.@X>X>X8X8X].T.G.S.^.E.4.4.Z.S.A.G.*XrXgXhXtX<X=X-XeXeX:X:XP.I.N.a.E * * * - - - - - - ",
"- - - - - - - - - R xXvXlXMXg > > < 7 p 8 x #XfXeX8X:X[.U.^.).*X^.S.A.G.~.(.7XtXjXhXgXeX<X<XeX7X7X7X:XP.B.N.v - - - - - - - - - ",
"- - - - - - - - * @.iXkXvXlX% X . .   o % : @.fXkXzX8X,X[.^.'.7XrX9X7X:X*X<X0XqXjXkXhXhXuXuXtX0X-X7X>XP.V.v.i - - - - - - - - - ",
"- - - - - - - - * n kXgXmXfXg % % . O O X % n fXjXyX7X:X'.,X7XuXyXgXhXhXtX1XfXgXwXgXgXgXuXtXeXeX5X*X,XE.N.s.$ - - - - - - - - - ",
"- - - - - - - - ; n xXmXlX+Xi > $ o . o O > =.4XfXfXeX8X:X*X7XqXwXgXjXjXgXtXtXtX1XtXtX<X0X<X-X-X*X/.(.A.i.,.- * - - - - - - - - ",
"- - - - - - = = < kXkXjXfX+Xs & $ ; $ . : l oX$X+X#X%X(./.*XwXqXfXwXfXgXgXyXtX<XtXtXeXeX-X-X&X%X(.6.R.+.} 0.* - - - - - - - - - ",
"- - - - = = = = l xXxXjX$X*.l 5 $ $ % , a #.oX+X1X1X>X*X~.(.wXqX<X<X1XqXqXgXgXqXeX<X-X=X%X(.W.W.R.6.F.s.y.<.* * - - - - - - - - ",
"- - - - - - - - z cXlXhX<X#.j a , , , 8 g @.OX+X2.9.W.5.Q.W.7X0X1X0X0X0X;X5X1X0X-X-X*X/.W.Q.W.(./.W.F.} O.j - - - - - - - - - - ",
"- - - - - - - - g xXbXzX=X$.c d a 8 7 8 f R +X*.@X@Xq.(.R.W.@X1X=X@X=X;X;X%X@X=X-X/././.W.%X&X:X(.Q.o.{ 5.* - - - - - - - - - - ",
"- - - - - - - - 7 @.xXtXtX@Xe , .   , 9 0 c $.1.;.5.7.F.o.;.7.w.%X%X/././././.=X%X/.e.%X>X<X-X*X~.W.H.} b * - - - - - - - - - - ",
"- - - - - - - - $ #.xXhXhX;Xk 5 , $ . . $ 9 R 1.7.0.0.1.-.` | 7./.%X/.q.q.%X-X-X/./.%X7XeXtX-X=X~.^.,.>.* * - - - - - - - - - - ",
"- - - - - - - - * n zXxXhXuX1.h 8 : : > ; % , e I h 6 3 q 0 ` w.q.W./.e.W.-X;X%X&X*X-X7X0X<X-X-X~.K.X.X - - - - - - - - - - - - ",
"- - - - - - - - = s %.zXtX-X;X2.h 9 q 5 8 8 , & 5 9 9 e k ` 2.%XW.R.W.%X*X=X=X=X=X&X*X-X-X&X&X).~.+.E = - - - - - - - - - - - - ",
"- - - - - - - - * * E zXxXdX<X/.$.U U I I I k c U U ' P | 7./././.R.R./.&X=X=X-X=X=X&X&X&X(.E.A.,.1.* = - - - - - - - - - - - - ",
"- - - - - - - - = - z zXdXuX>X*Xq.` ' ` ` ;. .` o.| | ,.D.F./.~.F.R.R.R.W.&X&X=X-X;X&X%X%X(.E.f.Z.* - * - - - - - - - - - - - - ",
"- - ; = - - - - - - > E sXrX>XeX:X~.q.~.0.0.5.7.D.D.R.^.Q.R.R.R.R.W.6.6.R.W.&X=X5X-X;X&X~.6.D.4.X - - - - - - - - - - - - - - - ",
"- - - = - - - - - - X =.sXrXeX7XrX:X*X(.(.).(.F.F.R.R.5.D.5.5.5.D.6.6.~.W.%X;X0XeX<X@X~.W.X.3.; * - - - - - - - - - - - - - - - ",
"- - - - - - - - - - - p <.rX8X7X>X:X7X~./.R.R.4.R.6.5.5.5.7.7.5.D.5.W.=X-X<X<X;X=X*X*X(.X.*.* - - - - - - - - - - - - - - - - - ",
"- - - - - - - - - = - - s 8. X>X>X'.'.^.'.^.~.~.R.R.q.0.D.0.D.F.A.W.=X-X<X>X-Xe.%X%XR.;.v - - - - - - - - - - - - - - - - - - - ",
"- - - - - - - - - - - - - z 8.7X7X'.^.^.^.(.Q.R.q.q.5.F.0.F.F.5.W./.-X0X-X-X*X-XW.,.;.i - - - - - - - - - - - - - - - - - - - - ",
"- - - - - - - - - - * - - - v 7.:X'.^.`.E._.R.F.6.F.F.6.F.D.4.4.F./.=X-X>X).(.W.;.*.+ - - - - - - - - - - - - - - - - - - - - - ",
"- - - - - - - - $ * - - - - * z <.*X(._.G.^.E.F.F.G.Z.4.4.4.Z.4.4.W.R.R.R.R.<.%.b * - - - - - - - - - - - - - - - - - - - - - - ",
"- - - - - - - - - - - - = = = = d <.0._.`.G.P.S.A.A.Z.Z.4.4.6.Z.b.Z.7.4.Z.>.$.$ - - - - - - - - - - - - - - - - - - - - - - - - ",
"- - - - - - - - - - - - - - - - - $ @.7.^._.F.G.F.Z.Z.Z.+.+.+.+.X.+. . .*.; - = - - - - - - - - - - - - - - - - - - - - - - - - ",
"- - - - - - - - - - - - - - - - - - - : ;. .+.7.H...o.s.X.X.,.o. .;.v + - - - - - - - - - - - - - - - - - - - - - - - - - - - - ",
"- - - - - - - - - - - - - - - - - * $ - + + d $.$.*.&.&.E x j s - * - - - - - - - - - - - - - - - - - - - - - - - - - - - - - - ",
"- - - - - - - - - - - - - - - - $ - - - - - - - * * - - - * - - - - - - - - - - - - - - - - - - - - - - - - - - - - - - - - - - ",
"- - - - - - - - - - - - - - - - - - - - - - - - * - - - - - - = - - - - - $ - - - - - - - - - - - - - - - - - - - - - - - - - - ",
"- - - - - - - - - - - - - - - - * - - - - - - - - - - * * - $ - - - - - - - - - - - - - - - - - ; - - - - - - - - - - - - - - - ",
"- - - - - - - - - - - - - - - - - - - - - - - - - - - - - - - - - - - - - - - - - - - - - - - - - - - - - - - - - - - - - - - - ",
"- - - - - - - - - - - - - - - - - - - - - - - - - - - - - - - - - - - - - - - $ - - - - - - - - - - - - - - - - - - - - - - - - "
};
