/* XPM */
static char *_5baffacf58647d8a4dd4864d357eb58yEY2cpPf9QRyMs2F[] = {
/* columns rows colors chars-per-pixel */
"64 64 239 2 ",
"   c #010101",
".  c #0B0302",
"X  c #030A05",
"o  c #090A05",
"O  c #040409",
"+  c #0A0509",
"@  c #020A09",
"#  c #0A0A0A",
"$  c #120203",
"%  c #1C0201",
"&  c #12050C",
"*  c #130E0D",
"=  c #1A0907",
"-  c #181509",
";  c #060613",
":  c #140716",
">  c #0D1211",
",  c #141413",
"<  c #1C1C1C",
"1  c #1B1618",
"2  c #0A100E",
"3  c #230303",
"4  c #230A04",
"5  c #230C0A",
"6  c #310C0B",
"7  c #250A14",
"8  c #271A16",
"9  c #331B1A",
"0  c #281300",
"q  c #1B2318",
"w  c #25211E",
"e  c #2A261D",
"r  c #382617",
"t  c #35280B",
"y  c #1D1E21",
"u  c #270526",
"i  c #2A1328",
"p  c #390D37",
"a  c #280A3B",
"s  c #1E2626",
"d  c #252424",
"f  c #2A2A2A",
"g  c #3B2737",
"h  c #343434",
"j  c #3C3B3B",
"k  c #363A36",
"l  c #332D2D",
"z  c #432609",
"x  c #45391C",
"c  c #432219",
"v  c #48083C",
"b  c #441C2E",
"n  c #463528",
"m  c #463838",
"M  c #4A3236",
"N  c #3D403B",
"B  c #47433F",
"V  c #6E5630",
"C  c #3F3043",
"Z  c #563348",
"A  c #4D2F48",
"S  c #483E60",
"D  c #662C52",
"F  c #3E4A43",
"G  c #444443",
"H  c #454B47",
"J  c #554845",
"K  c #484952",
"L  c #585957",
"P  c #515652",
"I  c #6C574D",
"U  c #5B615F",
"Y  c #65645D",
"T  c #75685F",
"R  c #5E5E62",
"E  c #5C6562",
"W  c #686766",
"Q  c #756968",
"!  c #74746C",
"~  c #777778",
"^  c #747172",
"/  c #86673B",
"(  c #947649",
")  c #996C5B",
"_  c #94765B",
"`  c #877243",
"'  c #A16B5F",
"]  c #815469",
"[  c #846E6B",
"{  c #867A7B",
"}  c #92767B",
"|  c #8E716D",
" . c #A8796A",
".. c #7A847C",
"X. c #88837C",
"o. c #859278",
"O. c #A3916B",
"+. c #968051",
"@. c #7C7D81",
"#. c #A15C93",
"$. c #977A89",
"%. c #8A6E85",
"&. c #A97593",
"*. c #B06AB0",
"=. c #8C5388",
"-. c #C94EB2",
";. c #E05EBE",
":. c #CA6295",
">. c #CF57C8",
",. c #CC63C3",
"<. c #DA69CA",
"1. c #D673D5",
"2. c #E76AD8",
"3. c #E776D9",
"4. c #EB79CB",
"5. c #E979E6",
"6. c #F176EE",
"7. c #7C8782",
"8. c #799587",
"9. c #8C8C8C",
"0. c #888785",
"q. c #978787",
"w. c #8D928D",
"e. c #869A88",
"r. c #979287",
"t. c #8C8C95",
"y. c #958C94",
"u. c #8D9A94",
"i. c #8B9497",
"p. c #949493",
"a. c #999494",
"s. c #959B95",
"d. c #95959B",
"f. c #9A979C",
"g. c #9B9C9B",
"h. c #9A9B9A",
"j. c #A6898A",
"k. c #A39B9B",
"l. c #AA9797",
"z. c #B6979A",
"x. c #AA8F93",
"c. c #8CA49A",
"v. c #9CA19D",
"b. c #96A497",
"n. c #97A08B",
"m. c #A7A49C",
"M. c #B8A39D",
"N. c #9C9CA3",
"B. c #9697A3",
"V. c #A79AA4",
"C. c #B393AA",
"Z. c #9CA3A6",
"A. c #A2A4A4",
"S. c #A8A9A7",
"D. c #B0ACB2",
"F. c #C49297",
"G. c #CEB293",
"H. c #E3BC9B",
"J. c #F5BF9D",
"K. c #CC9DA5",
"L. c #F79FB5",
"P. c #C7A8A8",
"I. c #D5A5AB",
"U. c #D5B6A9",
"Y. c #D5A8B6",
"T. c #D6B3B6",
"R. c #E6B9AA",
"E. c #E6BABA",
"W. c #FCBEBC",
"Q. c #F6BAB8",
"!. c #EEACB4",
"~. c #DFC797",
"^. c #E8CC99",
"/. c #EACB98",
"(. c #DDC5A9",
"). c #EAC7A9",
"_. c #F7C5AB",
"`. c #F7D7A7",
"'. c #E4C2B4",
"]. c #E9C5B7",
"[. c #FDC3BC",
"{. c #F4CABC",
"}. c #F7C6B6",
"|. c #F4D4BA",
" X c #ECD4AF",
".X c #D38ECF",
"XX c #F79CCC",
"oX c #FB87DA",
"OX c #EB9BD9",
"+X c #F79BD8",
"@X c #E794C8",
"#X c #D7ADCE",
"$X c #EBADCB",
"%X c #F8A8CD",
"&X c #E9B8C9",
"*X c #F9B8C9",
"=X c #EEA4D3",
"-X c #FBA2D4",
";X c #F8A8D9",
":X c #EDB8DA",
">X c #FDB5D2",
",X c #FBBCD3",
"<X c #F8BADA",
"1X c #DA94E8",
"2X c #E986E4",
"3X c #F58AE7",
"4X c #E796E6",
"5X c #FC9BE4",
"6X c #F493EA",
"7X c #FC96ED",
"8X c #FD9DEE",
"9X c #F896E8",
"0X c #FC8DF4",
"qX c #FD8DFC",
"wX c #F488F5",
"eX c #ED95F2",
"rX c #F494F4",
"tX c #FD94F4",
"yX c #FC9BF4",
"uX c #FD94FD",
"iX c #FD9BFD",
"pX c #F599F9",
"aX c #E9A6E7",
"sX c #FEA3EA",
"dX c #F5A5E7",
"fX c #EEA0F3",
"gX c #FBA2F3",
"hX c #FDA3FD",
"jX c #FDACFC",
"kX c #F5A5F5",
"lX c #F5B7EB",
"zX c #BAC7C0",
"xX c #D6D2C9",
"cX c #E6C9C6",
"vX c #F8C5C7",
"bX c #FBC5DA",
"nX c #EDD5CF",
"mX c #E8E7E3",
"MX c #F2EEED",
/* pixels */
"                                                                                                                                ",
"                                                                                                                                ",
"                                                                                                                                ",
"                                                                                                                                ",
"                                                                                                                                ",
"                                                                                                                                ",
"                                                                                                                                ",
"                                                                                                                                ",
"                                                                                                                                ",
"                                                                                                                                ",
"                                                                                                                                ",
"                                                                                                                                ",
"                                                                                                                                ",
"                                                                                                                                ",
"                                                                                                                                ",
"                                                .   .   .   .       .     .   .   .   .   .   .                                 ",
"                                o @ - o - 7 % = $ 4 = % 3 4 6 3 : % 3 3 3 6 6 3 3 3 % % 3 4 3 3 -   # o   O   O   O       O O O ",
"                                  9 G. X).cX&X&XE.].].].E.E.'.U.E.].{.{.R.R.}.Q.E.].'.'.).).).).x 8       O   O           O   O ",
"                                n V ^.`.Q.Q.bXlX*X*XvX,XlXlX<X,X,X%X$X,X>X%X>X<XlX<X:XvXvX{.|.`.O.Q .   O                   O O ",
"                                +.^.`./.{.*X;X%X%X=X+XOXdXgXsX+X;X=XXX=X%X-X;XdX9XaXaX=X%XQ.}._. XG.$ o   O   O         O   O   ",
"                              . / `._.J.,X%XsXsXsXsXyXpXuXqX5.;.rXiXjX6X1.3.rXhXhXiXkXsX;X>X[.}.].(..     O   O             O O ",
"                                ' _.}.Q.+XoXtXuX7XuXuXuXuXqX2.>.5.tXuX2X1.3.rXuXuXpXuXpXyX-X%X*X].~.% .   O X O             O   ",
"                            . . O.J.*X%XyXwX2.6.0XtXyXuXiXuX3X4.uXuXyX6X2XwXiXuXiXuXpXuXyX5X-X%XvXH.4 $ . O               O   O ",
"                              . ' W.%X+XiX6.-.2.qXuXtXuXqXuXuXtXuXuXiXrX.X,.2X1XiXiXuXuXuX7X5X+X*XG.3 $   +   #               O ",
"  o     +           o     O o . ) W.;XyXtXqXqXqXuXrXuXuXuX6X7XtXhXrXhX*.u : u #.jXOXwX>.1.uXyX5XQ.R.% . #   X @ X       . o   . ",
"      #     O             O   . ) W.;XkXiXuXuXuXqXiXpXiXuX7XyXyXeXfX*.=.A g A Q *.OX8X,.6.wXgXgX,XU.$ .   f N f k X     o       ",
"      #   o o   O             $ ( Q.;XfXyXiXuXiXtXiXrXiXpXuXiXtXjX1Xa A x.k.&.M 6 &.dXgXiXiXhX4X&XR.$ . : h 0.Z.7.2   X     +   ",
"            O           + #   . ( }.:XfXpXuXyXyXgXiXqXiXeX5.wXtX1XaXa C l.O.M.! } Z D dXfXfX4XdXT.).$ d 0.~ B.B.Z.#   X     O   ",
"#   O         O o o .   O o   . ( _.:XpXuXuXrX5XtXiXiXpX2X>.5.iXhXaXu g S.s.n.o.y.g A .XaXlX.X=XcXM.8 w t.N.D.B.f.o .       o   ",
"    O O O   o                 . ( }.aXpXuXiX7X5XgXiXpXuXpX6.wXiXiX1Xp C g.e.e.b.d.y.%.u u a u u 7 r 0.w.t.Z.t.i.a.+ o   . o O   ",
"O o o   < , # , y     o O     $ ) [.dXuXqXuXtXoX3X7X7XuXiXiXiX0XyXaXp A c.c.8.b.Z.V.^ u i : & 1 = - a.k.B.S.N.B.f.& o     X X X ",
"      # 0.h.9.h.t.k   O O O   . ' W.gXuXqXuX6XoX-.6XhXiXwX0XtX0X8XaXu C p.Z.c.c.t.B.y.V.d.d.A.r.m.r.k.9.D.9.B.N.g.+         X X ",
"      , k ~ f.s.w.W L P G o   . ) ,X6XqXuXuXtX3.<.4XtXpXqXqX0XoX.XC.Z S B.u.e.c.u.b.k.l.V.f.i.B.f.N.g.f.p.d.v.h.i.h d o   O O   ",
"O   O   # G 0.A.S.p.w.p.R o   . ) vX;XtXqXqXiX0X6XjXhXhXiX0X2.-.v : %.D.B.i.Z.c.S.0.q.S.y.f.Z.B.f.p.p.N.g.g.v.w.v.w..., O       ",
"    # o   , h j l l k F K W m o ) W.$X+X3.6.uXuXyXiXpXtXiXqX5.,.v & $.B.f.g.b.zXxXY J k.y.A.N.t.g.g.p.D.mXw.A 0.9.m.9.  O       ",
".       O O #     o o   h f.L . _ Q.!.L.;.2.rXtX9X3X7XtXuXuX0XjXp i $.y.V.m.p.xXMXJ d r.f.A.N.B.Z.w.A.D.MXp.- X.m.k.{   #   O   ",
"o         o # * * O , #   f   . _ vX$X4X2.3.uXuXkX0XjXhXyXtX3XsXv + $.V.V.x.j.Q B . - s.v.h.0.v.f f m...m f . [ l.k.{ $ &     O ",
"    O # o   O   >   o , O O   * _ vX:XjX0X0XuX0XiXqXhX3X3XyXoX+XJ . } l.z.x.z.M $ - N u.b.b.w.h.@ q v.W * = 6 X.q.z.q.. . . o   ",
"            O #             * . [ ,X$XdXhXuXqXqXuXqXrX;.<.iXsXaXp O j.F.Y.K.I.x.l.X...u.u.m.h.p.u.7.v.w.q.X.| P.U.T.l.% . .     ",
"o     O         O O #   +   ,   } nX!.XXpXqXqXqXwXuXpX-.>.iXyXsXA   $.z.#X!.I.F.r.Y ! b.s.9.0.L u.c.b.0.Y [ z.P.Y.P.x.5 $ .     ",
"                    O   O   o   _ ).[.!.;X4.-.2.uXqXuXuXuXuXiXhXg + $.z.K.!.I.z.x.8 y b.b.s.P . 8.S.s.! $ l l.U.P.U.K.$ . o     ",
"                + o   O       . /  X`._.W.L.:.4.8X8XiXiXiXhXkXaX$.Q I ] I.F.F.P.M.l o F P G y O F H F N $ n x.z.P.I m $ $     O ",
"                      o   o .   O.~.`.).[.vXL.L.+X+X-XXX-X-XdXaX#XM.9 M x.j.F.q.r.d   X O   >   2     o . m l.j.$.5 $ . .   .   ",
"                            o o 0 V ^.~.`.H.vX,X>X>X>X>X,X<X:X:XxX].x.Q M [ m.S.k.! W ! ^ W W E U E ^ Y Y { M.B m .   . .   #   ",
"                      O   O O   = 4 ).nXnX/.vXvXvXvXvX{.{.cXcXcXnXcXnXX.$ B o.p.p.a.v.a.9.k.N.u.A.h.Z.p.A.k.q.1 $   +       O O ",
"                *   o ^ ~ ^ ^ 9.g $ x t t x r 9 c c z z z z z r g 9 8 w . - k y d < i l 8 d s s d < > d f < w X         +   O   ",
"                      ~ A.S.d.t.S :   + .   o & . . . . . .     $ % = , O X X O # O o . + + + @ y f + o O   o   o O   O   O O   ",
"                  > , ~ p.p.R 1 ; O   q e.o.o.P         . . O O & % .     L ..s.f.< o . #   P 0.d.@.,     #       X     O O   O ",
"                    , k W W f   #     < G W L G                 . O     o d K W L d         f U R C ,         O                 ",
"                              + O         o                             X o     o     o o     # # #   X o                       ",
"                O O o O   O   O O   o         O                                     O     O       O       O   o                 ",
"                        o o               o   O                       O O   o +                 o o                             ",
"                        O o     o             O                 o               O             O       o                         ",
"                # O           o             O o                       o # o O         O o       o     O   O o                   ",
"                    o O       O           O                     o o           o   O             O         O                     ",
"                                o         O                           O o o         o     O                                     ",
"                                                                                                                                ",
"                                                                                                                                ",
"                                                                                                                                ",
"                                                                                                                                ",
"                                                                                                                                ",
"                                                                                                                                ",
"                                                                                                                                ",
"                                                                                                                                "
};
