/* XPM */
static char *result[] = {
/* columns rows colors chars-per-pixel */
"64 64 256 2 ",
"   c black",
".  c #010101",
"X  c #020202",
"o  c gray1",
"O  c #040404",
"+  c gray2",
"@  c #060606",
"#  c #070707",
"$  c gray3",
"%  c #090909",
"&  c gray4",
"*  c #0B0B0B",
"=  c #0C0C0C",
"-  c gray5",
";  c #0E0E0E",
":  c gray6",
">  c #101010",
",  c #111111",
"<  c gray7",
"1  c #131313",
"2  c gray8",
"3  c #151515",
"4  c #161616",
"5  c gray9",
"6  c #181818",
"7  c #191919",
"8  c gray10",
"9  c #1B1B1B",
"0  c gray11",
"q  c #1D1D1D",
"w  c #1E1E1E",
"e  c gray12",
"r  c #202020",
"t  c gray13",
"y  c #222222",
"u  c #232323",
"i  c gray14",
"p  c #252525",
"a  c gray15",
"s  c #272727",
"d  c #282828",
"f  c gray16",
"g  c #2A2A2A",
"h  c gray17",
"j  c #2C2C2C",
"k  c #2D2D2D",
"l  c gray18",
"z  c #2F2F2F",
"x  c gray19",
"c  c #313131",
"v  c #323232",
"b  c gray20",
"n  c #343434",
"m  c #353535",
"M  c gray21",
"N  c #373737",
"B  c gray22",
"V  c #393939",
"C  c #3A3A3A",
"Z  c gray23",
"A  c #3C3C3C",
"S  c gray24",
"D  c #3E3E3E",
"F  c #3F3F3F",
"G  c gray25",
"H  c #414141",
"J  c gray26",
"K  c #434343",
"L  c #444444",
"P  c gray27",
"I  c #464646",
"U  c gray28",
"Y  c #484848",
"T  c #494949",
"R  c gray29",
"E  c #4B4B4B",
"W  c #4C4C4C",
"Q  c gray30",
"!  c #4E4E4E",
"~  c gray31",
"^  c #505050",
"/  c #515151",
"(  c gray32",
")  c #535353",
"_  c gray33",
"`  c #555555",
"'  c #565656",
"]  c gray34",
"[  c #585858",
"{  c gray35",
"}  c #5A5A5A",
"|  c #5B5B5B",
" . c gray36",
".. c #5D5D5D",
"X. c gray37",
"o. c #5F5F5F",
"O. c #606060",
"+. c gray38",
"@. c #626262",
"#. c gray39",
"$. c #646464",
"%. c #656565",
"&. c gray40",
"*. c #676767",
"=. c #686868",
"-. c DimGray",
";. c #6A6A6A",
":. c gray42",
">. c #6C6C6C",
",. c #6D6D6D",
"<. c gray43",
"1. c #6F6F6F",
"2. c gray44",
"3. c #717171",
"4. c #727272",
"5. c gray45",
"6. c #747474",
"7. c gray46",
"8. c #767676",
"9. c #777777",
"0. c gray47",
"q. c #797979",
"w. c gray48",
"e. c #7B7B7B",
"r. c #7C7C7C",
"t. c gray49",
"y. c #7E7E7E",
"u. c gray50",
"i. c #808080",
"p. c #818181",
"a. c gray51",
"s. c #838383",
"d. c #848484",
"f. c gray52",
"g. c #868686",
"h. c gray53",
"j. c #888888",
"k. c #898989",
"l. c gray54",
"z. c #8B8B8B",
"x. c gray55",
"c. c #8D8D8D",
"v. c #8E8E8E",
"b. c gray56",
"n. c #909090",
"m. c gray57",
"M. c #929292",
"N. c #939393",
"B. c gray58",
"V. c #959595",
"C. c gray59",
"Z. c #979797",
"A. c #989898",
"S. c gray60",
"D. c #9A9A9A",
"F. c #9B9B9B",
"G. c gray61",
"H. c #9D9D9D",
"J. c gray62",
"K. c #9F9F9F",
"L. c #A0A0A0",
"P. c gray63",
"I. c #A2A2A2",
"U. c gray64",
"Y. c #A4A4A4",
"T. c #A5A5A5",
"R. c gray65",
"E. c #A7A7A7",
"W. c gray66",
"Q. c #A9A9A9",
"!. c #AAAAAA",
"~. c gray67",
"^. c #ACACAC",
"/. c gray68",
"(. c #AEAEAE",
"). c #AFAFAF",
"_. c gray69",
"`. c #B1B1B1",
"'. c #B2B2B2",
"]. c gray70",
"[. c #B4B4B4",
"{. c gray71",
"}. c #B6B6B6",
"|. c #B7B7B7",
" X c gray72",
".X c #B9B9B9",
"XX c gray73",
"oX c #BBBBBB",
"OX c #BCBCBC",
"+X c gray74",
"@X c gray",
"#X c gray75",
"$X c #C0C0C0",
"%X c #C1C1C1",
"&X c gray76",
"*X c #C3C3C3",
"=X c gray77",
"-X c #C5C5C5",
";X c #C6C6C6",
":X c gray78",
">X c #C8C8C8",
",X c gray79",
"<X c #CACACA",
"1X c #CBCBCB",
"2X c gray80",
"3X c #CDCDCD",
"4X c #CECECE",
"5X c gray81",
"6X c #D0D0D0",
"7X c gray82",
"8X c #D2D2D2",
"9X c LightGray",
"0X c gray83",
"qX c #D5D5D5",
"wX c gray84",
"eX c #D7D7D7",
"rX c #D8D8D8",
"tX c gray85",
"yX c #DADADA",
"uX c gray86",
"iX c gainsboro",
"pX c #DDDDDD",
"aX c gray87",
"sX c #DFDFDF",
"dX c gray88",
"fX c #E1E1E1",
"gX c #E2E2E2",
"hX c gray89",
"jX c #E4E4E4",
"kX c gray90",
"lX c #E6E6E6",
"zX c #E7E7E7",
"xX c gray91",
"cX c #E9E9E9",
"vX c #EAEAEA",
"bX c gray92",
"nX c #ECECEC",
"mX c gray93",
"MX c #EEEEEE",
"NX c #EFEFEF",
"BX c gray94",
"VX c #F1F1F1",
"CX c gray95",
"ZX c #F3F3F3",
"AX c #F4F4F4",
"SX c gray96",
"DX c #F6F6F6",
"FX c gray97",
"GX c #F8F8F8",
"HX c #F9F9F9",
"JX c gray98",
"KX c #FBFBFB",
"LX c gray99",
"PX c #FDFDFD",
"IX c #FEFEFE",
"UX c white",
/* pixels */
"z z z z l z z z l z z z z z z z z z z z z z c f $ . X . . . . . . . X X X I { x z z z z z z z z z z z z z z z z l z z z z z z z ",
"z z z z z l z z z l z z z z z z z F ~ ] ] ] [ ) G ! { ] | } [ [ [ { { [ ] #.$.[ [ [ { ( m l z z z z z z z z z z z z z z z z z z ",
"z z z z z z z z z l z z z z z z x ^ ' F F F A Q Z..X%X$X=X&X$X$X$X%X$X$X#XB.O.G F G K K b z x x x x x x z z z z z z z z z z z z ",
"z z z l z z z z l z z z l l z k f _ ( u i i w J fXUXIXIXIXPXLXLXPXPXPXIXIX,X3.i y a 8 = u f d d f d d f l z z l z z z l z z z z ",
"z z z z z l l z z z z z z z x f - H Z.uXiXiXyXsXKXUXIXIXPXIXUXUXUXUXUXUXIXDXcXiXiXgXF.a * % & # @ @ # ; g x z z z z z z z z z z ",
"z z z z z z z z l z l m ) { { ` H e.4XLX5XtXZXUXUXIXPXLXIXJXZXmXbXnXmXmXnXMXVXDXUXUXvXW.$.]  .Q * 8 M K ` ~ D z z z z z z z z z ",
"z z z z z z z z l l l b H J S ! G.8XHXmX:.l.wXUXUXUXUXUXUXDXgX0X0XqX0X9XqX0X8XtXHXUXUXLX5X-X2X^.0 G x.G.` ` ! z z z z z z z z z ",
"z z z z z z z z z n b i * 7 t S $XpXsX*XS $.].uXuXyXuXiXyXtX9X3X7X5X2X<X5X3X>X6XGXUXUXGXdXuXfX+Xw E /.oXt H { z z z z z z z z z ",
"z z z z z l l z z ( H * p G.lX%XS t r A &X X-.i y u u u i 1.=XDXSXSXDXDXDXDXDXDXLXIXUXdXH e a e @ = q y @ P { z z z z z z z z z ",
"z z z z z z z z z { H 5 D.uXdX}.$./ / %.|.^.e._ ` _ ) _ ) w.T.,XFXUXUXIXIXUXUXUXIXmXeX'.$./ ' T =       X U { z z z z z z z z z ",
"z z z z z z z z x { A w dXpXz.@.'.-X>X X#.7.Y.$X%X$X$X%X$XR.7.:.mXUXUXLXPXIXUXUXUXeXx.@.].*X-XW.8       o U { z z z z z z z z z ",
"z z z z z z z l g _ W H dX5X:.H dXLXnX%XA :.>XPXLXPXIXIXIX,X>.A &XnXDXUXIXIXUXHXfX'.@.H dXUXUXiXy       . I { z z z z z z z z z ",
"z z z z z z x f = H C.sXKXAXjXfXJX,X:.A *XmXSXPXIXUXUXIXIXDXmX$XS :.>XIXUXUXUXaXH $.].dXJXUXUXpXi   . X X I { x z z z z z z z z ",
"z z z z z z x d @ ~ .XUXUXUXUXUXIX@X^ t dXGXqX@X$XqXMXIXIXUXUXdXe ! @XIXPXIXUXyXe ^ &XUXUXIXUXcX5.' }  . .%.%.) m l z z z z z z ",
"z z z z z z x d # | &XIXUXUXUXIXPX%X` p yXtXN.X.} M.0XPXUXIXUXiXu ) $XIXPXPXUXuXw ~ %XUXUXIXUXDX1X#X$X&X%XV.&.I v l z z z z z z ",
"z z z z l z x d # { #XLXUXUXIXPXIX&X_ u yX-XX.* X } #XKXUXUXUXiXu _ $XIXUXPXUXfXH @.`.dXKXUXUXUXUXUXUXUXPX@X| : f x z z l z z z ",
"z z z z z z x d % } $XIXIXIXUXUXIX%X` i uX,X..X . ..&XIXUXUXUXtXu ( #XIXLXPXUXJXfX].%.K sXUXIXIXUXIXPXIXIX*X .$ d x l z z z z z ",
"z z z z l z x d $ { $XIXUXHXZXCXJX9Xb.-.`.!.y.} } N.qXPXUXbXqX[.;.v.9XIXLXIXUXUXUXqXc.@.`.*X$X$X&X$X$X*X#Xm.K # d x l l z z z z ",
"z z z z l l x f @ ] #XIXUXCXfXuXGXMXeX'.@.0.Q.;X:XuXZXUXUX0Xz.&.].eXmXUXIXPXPXPXJXbXwX'.=.' ' ) ' ` ` ' ( S 9 # d x z l z z z z ",
"z z z z z m b u * *.1XPXIXBXyX7XVXJXUXfXJ $.].tXuXiXiXiXiX'.@.J dXUXUXUXUXPXKXLXUXUXUXiXu # 0 p i a a i u 8 = $ d x z z z z z z ",
"z z z z z ) J * a W.PXUXUXKXHXVX7XyXVXKXsX_.=.p u u i u i *._.dXJXUXUXIXLXPXIXIXPXPXUXiXu P T.iXiXtXtXiXuXE.! % f x z z z z z z ",
"z z z z z } J 6 G.vXUXIXIXUXUXJXuXdXCXUXUXwXb.' ) ( _ ` ` q.E.;X%X%X&X$X+X#X%X%X#X#X*X].-.m.tXLX5X=X=X5XPXpXz.L ` ^ D z z z z z ",
"z z z z z { F i gXUXIXIXIXIXUXLXMXVXJXUXIXnX0X&X$X$X$X&X%XY.0._ ) _ _ _ ] ` _ ` ) ` ' =.].rXDXMX3.) ^ >.mXFX5XA.) ] ~ z z z z z ",
"z z z z z { F u iXUXUXUXUXIXIXIXJXPXUXUXLXIXIXLXIXIXUXUXLX,X5.p u u u p z f u i u 9 # u uXLXMX#Xw # 5 D &XmXPXuXp H { z z z z z ",
"z z z z z { F u iXUXUXUXUXIXPXPXIXUXUXUXUXUXPXKXPXUXUXUXIXSXzXuXiXiXiXuXtXyXiXiXuXY.P u iX3X1.w # Q Q.$XS ,.7XiXu F { z z l l z ",
"z z z z z { F u iXUXUXIXUXUXPXPXUXIXPXIXUXIXPXPXIXPXPXUXIXIXHXZXCXCXZXZXSXKXUXUXGX X~ p yX*X( $ ~ a._.~.6 / =XuXd J { z z z z z ",
"z z z z z { F u iXUXUXIXIXUXIXPXUXPXPXIXIXPXPXUXIXLXPXUXPXAXjX0X9X9X0X0XeXjXAXHXuXL.P p uX;X_ q ~.`.d.^ ; [ ;XyXd J { z z z z z ",
"z z z z z { F u iXUXUXUXPXIXUXIXUXIXIXUXPXLXPXUXPXIXUXUXLXMXiX4X4X4X3X2X1XrXvXBX6XS.K p iX;X_ e XX/./ X .  .,XyXi G { z z z z z ",
"z z z z z { F u iXUXUXUXPXIXUXUXUXIXIXUXPXIXUXUXPXIXUXUXIXLXHXDXFXFXDXDXDXcXrX0XBXXX^ i uX>X .& w 0 ; . X } :XiXs H { z z l l z ",
"z z z z z { F i gXUXUXUXPXIXUXIXIXPXIXUXIXUXUXIXIXPXPXUXPXKXSXMXMXMXNXBXBXgX6X1XbX[.W i yX>X| : E } | Q ; ] ;XuXp G { z l l z z ",
"z z z z z } J 5 G.vXUXUXIXUXIXPXIXIXIXIXIXUXIXIXUXPXPXUXPXZXgX0X0X0X0XqXqX6X>X-X0XL.K i yX:X' 9 Q.<X<X!.4 ^ -XuXu G } z l z z z ",
"z z z z z ) J * a Q.PXIXUXUXIXPXUXUXIXPXPXIXIXIXUXUXUXUXUXBXiX3X3X3X2X1X3X4X2X<X2XF.J u iX:X) u uXLXmX*XA >.6XuXu G { z z z z z ",
"z z z z z m b u * &.2XIXUXIXIXPXUXUXUXIXUXIXIXUXUXLXLXUXUXPXHXSXSXDXDXSXFXFXDXSXSX.X^ i uX:X_ p yX7X<.A &XmXLXiXp G { z z z z z ",
"l z z z z l x f # ] #XIXUXUXUXLXNXCXHXUXUXUXIXIXIXLXLXUXIXIXUXUXUXUXUXUXUXUXUXUXUX&X' p iX:X_ i yX-X! w dXHX4XA.) _ Q z z z z z ",
"l z z z z z x d $ { $XIXUXPXUXKXuXsXCXUXUXUXIXPXIXIXIXUXIXIXIXUXUXIXPXPXPXIXIXUXIX%X_ p iX:X` s uX-X) s yXiXj.K _ Q A z z z z z ",
"z z z z l z x d # { $XPXUXHXDXVX9XrXvXGXPXUXUXIXUXUXUXUXPXIXUXUXUXPXLXKXIXUXUXUXPX@X( i uX:X] h uX-X' g tX:X| % d x z z l z z z ",
"z l l z z z x d % { #XPXUXZXpX7XBXMXuX8XAXUXUXUXPXPXPXPXIXUXIXLXPXIXIXIXUXPXLXUXIX$X) i uX-X( i tX-X_ p uX;X{ # d x z l z z z z ",
"l l z z l z x d $ | &XPXLXnXqX3XDXDXhXtXvXZXJXUXIXHXCXmXmXNXMXNXLXIXPXLXUXIXIXUXIX$X) i iX-X/ u uXiXn.*._.~.7.K ` ~ S z z z z z ",
"l z z z l z x s @ ~ oXUXIXvX0X5XDXKXAXnXuXgXCXUXIXZXhXwX9XqXqXuXKXUXPXLXUXUXUXUXIX$X) i uX:X_ u uXAXeX'.&.t.L.Z._ ' ! z l z z z ",
"z z z z z z x f = H Z.fXJXMXqX3XFXUXUXFX3X0XmXUXIXVXsX5X<X2X2X8XVXJXPXUXUXIXPXUXIX#X) i uX<X' u uXUXUXuXi ) -XtXs H { z l z z z ",
"z z z z z l z l g _ W G pXAXrX4XAXUXUXDX3XqXMXUXUXKXFXSXDXFXGXNX6XyXBXPXUXPXLXUXIX$X_ a yX:X` u yXUXUXeXy ) :XuXp H { z l z z z ",
"z z z z z z z z x { A q tXAXwX3XSXUXUXDX3XqXmXUXIXIXUXUXUXUXUXHXyXyXlXCXKXIXIXIXLX$X` p yX;X` 0 R.rXCXtXi _ ;XuXi G { z l z z z ",
"z z z z z z z z z [ F u iXZX9X2XFXUXUXDX4XqXmXUXPXIXUXUXIXIXIXLXBXlXiXpXFXUXUXIXKX$X_ i uX;X[ - Y m.pXgXa _ :XuXi F { z l l z z ",
"z z z z z z z z z { F u pXSXtX9XVXJXPXDX3XqXMXUXIXIXUXUXPXIXUXUXPXVXiX9XDXUXUXUXPX#X) i yX:X} @ w -..X+Xe ` :XyXi G { z z l l z ",
"z z z z z z z z z { F u iXUXFXVX9XyXVXDX1X8XnXUXIXUXUXUXUXIXPXIXIXKXGXGXIXIXPXLXPX#X) i rX;X` e +XXX:.e @ [ =XuXa G { z z z z z ",
"z z z z z z z z z ! ` ( A.1XNXGX3X8XvXDXuXpXzXNXLXUXUXUXUXnX9X$X@X9XNXUXIXIXUXAX,XT.w.5.zX-X_ i gXdXN.U = } >XyXi G { z z z z z ",
"z z z z z z z z z D ~ _ J h.eXDX1X9XmXKXBXzXiXyXJXUXIXIXIX9Xv._ ( b.eXUXUXPXUXxX3.w.R.1XKX:X' i dXKXdX~.9 [ ,XtXi G { z z z z z ",
"z z z z z z z z z z x d # } *XFX6XtXmXGXIXMXtX9XBXJXJXLXIX1X4.u a =._.sXJXUXUXiXi ` &XGXsXT.Y w oXdXfX+Xw _ ;XyXp G { z z z z z ",
"z z z z z z z z z z x d # [ $XPXGXvXtX0XFXPXJXCXqXuXNXIXUXDXlXyXyX'.#.J pXUXUXyXy ) ;XfXG 3 ; # w u p r @ { :XuXu F { z z z z z ",
"z z z z z z z z l z l v K $.m.;XIXDXsXrXbXBXNXvXuXuXjXMXMXZXLXUXUXwXx.@.).qXZXuXi ) ;XtXr , H ~ $ 2 A U : { <XgXi F { z l z z z ",
"z z z z z z z z l z l n ) %.+.@.W.fXDXcXtXqX0XeXbXkXuXwXqXdXCXUXUXnXqX`.@.z.iXfXp ) -XtXa Z M.R.0 H D.Q.7 ' !.F.7 J } z l z z z ",
"z z z z z z z z z z z l z ) K ; a W.IXFX9X1X2X0XFXBXiX4X2XrXcXFXPXPXUXdXJ #.|.OXe _ ;XuXu _ :XrXu W ).%XA -.4.p - K ) z z z z z ",
"z z z z z z z z z z z z l n b u * $.,XPXGXDXSXGXIXPXHXDXFXnXrX6XDXUXUXJXaX`.;.e # { -XyXp ' >XyXi # 5 S *X X..- i b m z z z z z ",
"z z z z z z z z z z z z l k l b J @.m.,XIXUXIXUXPXIXUXUXUXBXqX<XDXUXIXUXUXwXM.E - [ *XlX4.r./.Y.9 6 B ;.mX>X} % f z l z z z z z ",
"z z z z z z z z z z z z l z l n ) &.@.$.W.xXUXUXPXPXUXUXIXmX0X1XFXUXUXUXUXnXtXR.3 ( =XKX<XU.e.U @ D n.3XLXXX~ $ d x z z z z z z ",
"z z z z z z z z z z z z z z z l z ) J * p F.dXsXHXUXUXUXIXBXyX7XBXFXSXZXDXHXUXpXG @.`.dXJX-X,.p p =.`.uXuXA.H = f x z z z l l z ",
"z z z z z z z z z z z l z z z z z m b u * 7 e G dXUXIXIXIXLXJXVX0X<X>X,X5XsXZXJXfX`.@.J dXKXlXyXuX'.-.a u ) ` g l z z l z z z z ",
"z z z z z z z z z z z z z z z z z k k b J J A W Z.XX&X#X$XqXBXJXuX0XqXqX9XdXVXUXUXwXv.-.`.-X-X;X;XA.#.H F ` ~ x z z z z z z z z ",
"z z z z z z z z z z z z z z z z z z k m ) { { _ H ~ | [ { h.3XUXSXCXCXNXbXNXFXIXPXVXoX4. .[ } } { %.%.{ { ! S z z z z z z z z z ",
"z z z z z z z z z z z z l z z z z z z z z z x g ; # $ $ $ J A.uXtXzXDXUXUXIXIXUXLXKXE.p - # % & $ K ) z z z z l z z z l z z z z ",
"z z z z z z z z z z z z z z z z z l l z z z l k f d d d d _ ) p p <.;XIXUXPXLXIXPX:X$.- u f d d s c n z z z z z z z z z z z z z ",
"z z z z z z z z z z z z z z z z l l z z z z z z z x x x x W ( F H o.M.$X%X#X#X%X%XN.@.K b x x x x l l z z z z z z z z z z z z z ",
"z z z z z z z z z z z z z z z z l z z z z z z z l z z z z Z E ] [ #.#.[ [ [ { [ { %.%.) n l z z z z z z z z z z z z z z z z z z ",
"z z z z z z z z z z z z z z z z z z z l z z z z z z z z z z z z x { I .   O O   . U } x z z z z z z z z z z z z z z z z z z z z "
};
