/* XPM */
static char *_67264a0ebcd419fc27db8cd25e18144tFe5ndoAwTjNHUxe[] = {
/* columns rows colors chars-per-pixel */
"64 64 232 2 ",
"   c #040301",
".  c #151806",
"X  c #161918",
"o  c #1D1E1D",
"O  c #1B1713",
"+  c #201F1F",
"@  c #231A17",
"#  c #1F201F",
"$  c #182010",
"%  c #1F290B",
"&  c #20201F",
"*  c #272619",
"=  c #302A1F",
"-  c #32350D",
";  c #1E1E22",
":  c #211F20",
">  c #1E2121",
",  c #212121",
"<  c #2B2A25",
"1  c #25252A",
"2  c #26292C",
"3  c #2B2B2B",
"4  c #282727",
"5  c #352B28",
"6  c #33332D",
"7  c #2E2E30",
"8  c #322D31",
"9  c #2D3233",
"0  c #343333",
"q  c #3A3536",
"w  c #3A3B34",
"e  c #353639",
"r  c #3C3B3B",
"t  c #39383B",
"y  c #2B322A",
"u  c #453B39",
"i  c #58383B",
"p  c #3B403C",
"a  c #43443D",
"s  c #4C4337",
"d  c #574839",
"f  c #58593E",
"g  c #754D3B",
"h  c #3D3D42",
"j  c #443D43",
"k  c #493D43",
"l  c #463C49",
"z  c #503D4E",
"x  c #3F4341",
"c  c #434343",
"v  c #4C4543",
"b  c #494949",
"n  c #544A4A",
"m  c #4A544C",
"M  c #54544D",
"N  c #59564B",
"B  c #564A52",
"V  c #545452",
"C  c #595956",
"Z  c #4F5751",
"A  c #6C4E54",
"S  c #665A5B",
"D  c #71534F",
"F  c #5E694A",
"G  c #5B6057",
"H  c #66655C",
"J  c #76665B",
"K  c #595861",
"L  c #605B64",
"P  c #6C6A65",
"I  c #6A6767",
"U  c #766B66",
"Y  c #78736C",
"T  c #75766A",
"R  c #797974",
"E  c #6E6F72",
"W  c #8B504D",
"Q  c #84645A",
"!  c #A76858",
"~  c #8B7869",
"^  c #94746A",
"/  c #887A77",
"(  c #96736F",
")  c #BD736D",
"_  c #A97370",
"`  c #C9766F",
"'  c #7C817D",
"]  c #888478",
"[  c #98847A",
"{  c #9D836E",
"}  c #AA867B",
"|  c #D98C77",
" . c #8B7E82",
".. c #927F81",
"X. c #8B8884",
"o. c #938D8C",
"O. c #978A84",
"+. c #9A9489",
"@. c #989592",
"#. c #AA8A85",
"$. c #A1948C",
"%. c #A8998B",
"&. c #B8968C",
"*. c #AD9C9B",
"=. c #A79A94",
"-. c #BB9C99",
";. c #9EA19F",
":. c #AAA29C",
">. c #A8A798",
",. c #B3A89D",
"<. c #BDB19E",
"1. c #B99EA0",
"2. c #AF9DA1",
"3. c #AEABA2",
"4. c #B5AEA2",
"5. c #B8AAA7",
"6. c #BCB2A3",
"7. c #BCB3AB",
"8. c #B7B7A8",
"9. c #BCB9B2",
"0. c #B3A8B0",
"q. c #CC9897",
"w. c #DBA69E",
"e. c #CCA694",
"r. c #CAAAA7",
"t. c #D3A9A8",
"y. c #C2B6AD",
"u. c #C5B9AD",
"i. c #C5B7A6",
"p. c #C9BCB3",
"a. c #C6BBB6",
"s. c #D5B9B1",
"d. c #E6B9AB",
"f. c #CBC2AE",
"g. c #CCC4B6",
"h. c #CDCABC",
"j. c #C8C3B8",
"k. c #D3C6B9",
"l. c #DBC5BC",
"z. c #D4CBBE",
"x. c #DCCCBD",
"c. c #D6C6B7",
"v. c #DBD2BC",
"b. c #D6D4BB",
"n. c #E8C8BC",
"m. c #F6C6BA",
"M. c #E2D4BE",
"N. c #F0D2BC",
"B. c #CDCBC4",
"V. c #CAC3C2",
"C. c #D4CBC4",
"Z. c #DCCDC3",
"A. c #DCCDC9",
"S. c #D7C6C6",
"D. c #DBD3C3",
"F. c #DDDBC3",
"G. c #D5D1CA",
"H. c #DCD3CB",
"J. c #DDDACA",
"K. c #D4D5C2",
"L. c #DAD6D2",
"P. c #DDDCD1",
"I. c #DEDED8",
"U. c #D6D0C9",
"Y. c #E3CBC3",
"T. c #ECCDC5",
"R. c #EBCBC9",
"E. c #E7CAC7",
"W. c #F4CAC8",
"Q. c #E2D4C4",
"!. c #E2D9C5",
"~. c #E2D5CB",
"^. c #ECD3CA",
"/. c #E3DBCC",
"(. c #EADBCD",
"). c #ECD1C3",
"_. c #F9D6CB",
"`. c #E3D6D3",
"'. c #E9D7D3",
"]. c #E4DBD4",
"[. c #EBDBD3",
"{. c #E5DEDB",
"}. c #EEDDDB",
"|. c #E5D0D9",
" X c #F1DDD3",
".X c #F6DBD9",
"XX c #F0CFD0",
"oX c #EAE3CC",
"OX c #E8E2C9",
"+X c #F4E7CE",
"@X c #ECE4D4",
"#X c #EDEAD5",
"$X c #E6E3DB",
"%X c #EDE5DC",
"&X c #E6EADB",
"*X c #EDEADC",
"=X c #E6E6D4",
"-X c #F2E5D5",
";X c #F2E9D6",
":X c #F3E5DC",
">X c #F3EADC",
",X c #FAEBDC",
"<X c #FAE2DA",
"1X c #F6F2DE",
"2X c #FCF2DA",
"3X c #EDF0DF",
"4X c #F8DDE4",
"5X c #EDE5E2",
"6X c #EDEAE2",
"7X c #EFECE9",
"8X c #E8E4E4",
"9X c #F2E5E2",
"0X c #F8E7E2",
"qX c #F3EBE3",
"wX c #FAEDE3",
"eX c #F3EDEA",
"rX c #FCECEC",
"tX c #F5E6E8",
"yX c #EEF3E9",
"uX c #F5F2E4",
"iX c #FCF2E4",
"pX c #F4F3EC",
"aX c #FBF3EC",
"sX c #F6F9EA",
"dX c #FFFAEA",
"fX c #FDF8E5",
"gX c #F4EEF3",
"hX c #FDEEF0",
"jX c #F4F4F2",
"kX c #FAF3F2",
"lX c #FDF8F4",
"zX c #F9F9F7",
/* pixels */
", , , , , , : , , , , , & , , , # , , , , , , , , , , , , , , , , , , , , , : , , , , , , , , , , , , , , , , , , , , , , , , , ",
", , , , , , , , , , , , , , , , , , , , : , , , , , , , , : , , , , , , , , , , , , , , , > , , , , , , , , , : , , , , , , , , ",
", , , , , , , , , , , , , , , : , , , , , , , , > , : , , > , , & , , , , , , , , , , , , , , , : , , , , , , , , , , # , , , , ",
", , , , , , , , , , , , , , , , , , , , , , , , , , , , , , , , , , , , , , , , : , , , , , + , , , , , , , , , , , , , , , : , ",
", , , , , , , , & , , , , , , , , , , , , , & , , , , , , , , , , , , , , , , > , , , , > , , , , , & , , , , , , , , , , , , , ",
", , , , , , , , , , , , , > , , , , , , , , , , , , , , , , , , , , , , , , , & & , , , , , , , , , > , , , , , , , , , , , , , ",
", , : , , > , , , , , , , , , , : , , , , , > , , , , , : , , , , , , , , , , , , , , , , , , , , , , , , , , , , , , , , , , > ",
", , , # 7 3 # , , , , , , : , , , , , , , , , , , , & , , , , , , , , : , , , , , , , , , , , , , , , , , , : , , , , , + , , , ",
", , , > l V : > o , , , , , , , , , , , & , , , , , , , , , , , , , , : , , , , , , , , , , , , , , , , , , , , , , , , , , , , ",
"> , , ; s 0.N 1 4 , , , : , , , , , , , , , , , , , , , , , , , , , , , , , > , , , , , , , , , , , , , , , , , , : o o , , , , ",
", , , , j ~ j./ w 2 , + , , , , , , , , , , , , , , , , , , , , , , , , , , , , , & , , , , , , , , , , , , , , , , 6 4 , , , , ",
", , , ; h ^ ~ u.7.H < 1 & ; , , , , , , , , , , , , , , , , , , , , , , , , , , , , , , , , , , , , , , , : , : o e x # , , , , ",
", , , o 4 T r.S #.k.@.k 9 4 & & & , , , , , , , , , , , , , , , , , , , , , , , , , , , , , , > , , , : > , 1 q U @.I 3 o , , , ",
", , , , , > [ m.~ U =.f.] b 8 4 # # , , o , : : , > & , , , , , , o # # , , , , , , , , , , , , > , 1 , e M X.g.6.1.N : , , , , ",
", , , , & 2 w =._.t.( / j.g.E y 4 o > , 4 , 4 , , , , , , , ; o > , , 1 , # # , & , & , , , > o 4 , , C >.oX:XX.1.*.q > , , , , ",
", , , , & & 4 v s. XW.w.{ i.}./ r t r w n V C C G M b r r p r 0 5 r C K p 7 < # , , , , : , 3 q m S 8.2XqX0.J 1._.J 2 + , , , , ",
", , , , , , , 1 A R.T.t.e.#.6.#X@.p X.,.g.G.A.~.J.A.C.V.f.5.,.:.3.k.!.~.u.X.M 2 , , , & , e I +.h.dXuX*.U ^ s.4X&.0 , , , , , , ",
", , , , , o , o o n._.} A d.#.x.Q.,.D.OX:XqX1XeX>XuX1X>XpXiXaXqX1XiXqXtX1X>XH.' w p t q ' p.@XsX8X6.I Q r._.W.N.M ; , , , , , , ",
", , , , & , o 4 6 A._.~ O Q ( ,.D./.v.}.qX9X*X:X%X#X8X:X-X%X#X9X#X6X5X:X*X;XqXfXP.9.7.F.rXdX].8.[ ( w.T.W.E.<X7.t + , , , , , , ",
", , , , , > 2 n r =.m.&.s < X.g.Z.A.C.=X>X#X%X@X7XuX6X7XqX-X%X9X@X#X>X&X0X6X>X:X>XfX,XaX{.6.#.q.d.W.W.E.R.(.yX] 2 , , , , , , , ",
", & , , , , h 3 , V E.&.S #.h.Q.D.(.#X<XtXeXjXaXjXaXkXaXzXyXwXeXqX:X9X9X*X>X<X6X%X9X>XC.#.e.m.W.R.R.T.n.XX>X{.C , + , , , , , , ",
", , , , , # o o h v O.r.J g.~.A.(.>X@X>XeXpXpXkXjXsXpXgXpXjXeXpXzXzXqX:XqX&X*X#X8X>XA.%.w.m.s._.T.R.R.R.T.%XG.b , , , , , , , , ",
", , , , , , , , 3 0 y %.].x.D.oXqX*X5X#X>XkXpXjXjXjXaXjXjXjXaXzXpXrX*X6X:X%X5X*X:XqX:.#.d.Q r.R.Y.m.T.(.oXiXk.x o , : , , , , , ",
", , , , , , , , X o 1 U =Xx.@X*X:X6X:X5X1XkXpXpXsXeXkXpXjXaXsXqX&X9X;X*X5X,X6X;X#XuX[ A / B m.d.W.E.W.[.>XrX] 2 & , , , , , , , ",
", , , , , , : , p r j y.M.@X>X:X9X;X8X;XeXeXkXjXjXjXsXjXpX6X6X-X>X>X6X%X;X8X#X9X:XaX7.N k Q } &.W.).T.'.uXo.t , , , , , , , , , ",
", , , , , , , , q w ] ].J.;X5X:X#X*X%XqX-XpXpXkXpXpXjXjXhX;X5X@X6X9X;X9X#X0X5X:X6X#X6X>X[ < v w.R.^.oXiXf.r 4 : , , , , , , , , ",
", , , , , , , , , X T Y.Q.8X@X*X9X*X*X9X;XgXkXjXpXkXjX7X>X>X#X:X*X:X#X:X9X;X*X*X5X:X6X#XG.>.( _.^.^.9X:XH 2 : , , , & , , , , , ",
", , , , , , , , > 9 / /.&XiXeX#X>X@X#X9X7XjXpXrXsXjXqX6XqX*X:XqX-X@X9X;X6X5X5X*X>X>X%X:XaX6X=.i.iX@XlX+.2 > , , , , , , , , , , ",
", , , > , , , , 4 a y.@X'.0.j.{.qX$X9X>X6XaXpXjXjXqXqX@X:X:X5X>XuXrXuX6X5X;X:X#X9X>X>X%X$X2X^.K.qX5X7.t , , , , , , , , > , , , ",
", & , , , , , , 0 R ~.,X9.@ $ F C.6X;X5XqXpXaXaXkX%X#XuXqXL.P.*.@.o.*.>X9X8X>X:X;XqX:X8X%X5X*XeX%XqX'   u , > , , , , , & , , , ",
", , , , , & , o & k.@X>XuXY   - >.9.iX@XuXpXkXpX*X6XiXa.F d $Xf = = *.pX*X:X*X%X5X:XeX#X9X>X:X@X6X>X+.5 V 0 o , , , , , , : , , ",
", , , , , , , , o p.}.#XqX0X/ .   O.aX#XgXzXpX9XqX]./ O . % F % X +.fX%X-XqX9X#XqX:X5X;X9X%XqX&X-XuX8.j Z 4 o , , , , , , , , , ",
": , , , , , : , c h.J.4X>X*XqXy.R j.>X@XpXjX7X6XqXK.b 6 O * . 6 >.pX;X9X$XtXqX;X*X>X6X#X:X%X5X:X*XqXg.e 4 + & , , & , , , , , : ",
", , , , , , : 1 p ].v.$XqX7XaXsXlXqXeXeXpXjXaX6X:X;X$Xb.k.p.~.>XwX#X$X9X#X>X#XqX9X-X%XqXqX#X#XqX8X:Xg.B 1 , , , , , , , , , , , ",
", , , , , + 3 N @.-Xv.].#X:XuX7XkXaXkXeXaXkXpXyXaXyXqXeXeXiXaX>X:X>X9X*X9X#X9X;X@X6X].8X:X>X5X@X*X%Xv.v X , , , , , , , , , , , ",
", , , , , , < ] lX'.D.`.@X*X&X5X,X8./ ~ >.L.iXtXqXpXzXgXpX7XjX;X%X%X*X5X@X:XqXqX*X=X$X>X&X9X:XqX>XH.[.M X , , , , , , , , , , , ",
", , , , , > ,  .3X+XC.b.@X:X@XiX0.! ) ) ) _ D.*XqX*X:X5XuX9X6X:X8X:X&X@X>X>X:X;X].H.@X5X:X;X6X:X>XA.(.P # , , , , , , , , , , & ",
", , , , , > 3 K !.yXH.l.~.6X:XuX&.| | ` ! ! 5.>X%X;X*XqX@X6X:X9X6X>X,X6X8X9X:XP.~.D.@X5X:X:X6X:X&XA./. .0 o , , , , , , , , , , ",
", & , , , , X b ^.,XA.3.oX5X5XqX]._ ` D @.*.H.,X8X*X>X:X%X>X*X<X$X:X*X X=XD.~.G.D.C.>X*X*X;X9X>X[.v./.+.1 & & , , , , , , , , , ",
", , , , , , ; v H.uXu.] <X9X&X@XiX,.W n ~.fXqX9X>X5X#X*X9X;X$X>XC.y.H.G.A.Z.!.x.Z./.;X5X}.6X@XqX#XG.^.9.= > & , , , : , , , , , ",
", , , , , + < H $XaX+.O.=X-X*XqX-X>X4.4.@X@X@X0X;X5X<XqX&X6X,X*XH.:.Z.M.A.v.Z.Z.x.<X6X5X*X:X>X&X:XQ.Q.V.c , , , , , , , , , & , ",
", , , , , + 1 ' >X3Xp.O./.H.%XqX6XpXQ.0XaX5X6X:X*X:X8X>X:X*X6X@Xh.] z.A.b.D.x.v.Q.*X%X<X*X:X*X5X;XG.~.u.j , # , , , , , , , , , ",
", : , , , & , B /.qX'.6.j.M.~.@X/.V.P @.B.I.rX%X>X:X-X6X<X6X`.J.%.5.~.Z.D.H.S.~.:X6X6X;X9X>X*X>X@XH.D.c.h , , , , , , , , , , , ",
", , , , , o y 6 7.iX#X`.i.Z.G.^.S g W D D A 8.aX#XqX;X:X>X].P.u.+.J.A.v.D.x.v.[.qX@X*X>X9X:X:X6X.XZ.!.f.0 , , , , : , , , , , , ",
", , , , , , , 9 >.aX-XuX6.$.Q.8.5 W W W W W i p.aX>X5X/.L.D.z.i.h.A.v.Y.D.Z.'.>X;X,X8X6X*X;X9XqXF.A.F.4.1 , > , , , , , , : , , ",
", , , , , , , m ].#XqXqX#Xo.~ U Q +.] / Y J d = o.k.].H.Z.u.k.A.Q.Z.G.D.Y.=X>X9X%XqX;X0X;X*X#X:XH.x.'.[ 8 o , , , , , & , , , , ",
", , , , , o 3 C ~.6X@X$X9X-Xf.7.,XfXeXiXqX(.a.O.N U ] X.$.i.Z.D.D.Z.Q.v.-XqX%XqX>X:X6X>X5X*X;X&Xv.Z.].C o , , , , , , , , , , , ",
", , , , , o 4 B ].qX:X9X6X@XQ.8.G.:X*X%X>X>XaXwXlXqXv.J.#X[.Z.D.z.!.D.}.&X%X9X%X*X%X@X6X*X9X:X].C.D.g.n o & , , : , , , > , , , ",
", , , , , , o c B.:X8X>X%X6X(.U *.=X:X*X:X%X$X>X%X#XiXqX(.l.K.D.x.C.].qX<X*X5X>X*XqX>X:X9X>X@XJ.x./.%.6 1 & & & , , , , , , , , ",
", , , , , , , # o.dX#X:X*X,X@X=./ ].@XqX5X*X6X#X%X0X;XL.Z.D.Y.D.Z.(.@X0X#X5X>X:X:X%X:X:X:XqX{.D.n.D.P 2 ; , , , , , , , , , , , ",
", , , & , , , , e C.wX}.7X#XqX~./ a.~.:X%X>X9X*X#X{.].A.<.f.A.~.F.-X6X#X8X#X;XqX*X8X*X9X*X@X!.z.OX5.c * , , , , , , , , , , & , ",
", , , , , , , ; < R qX;X8X;XqX].U >.&X~.$X5X;XqX[.I.k.%.y.D.Z.~.@X5X-X*XqX;X6X:X>X;XqX>X*X/.A.Z.Q.P 3 > , , , , , , , , , , , , ",
", , , , , , , , 4 c 7.aX@X6X+XwX+.s =.D.D.H.J.x.B.&.o.k.!.Z.D.=X*X:X6X:X&X9XqX:X9X:X@X6X#X|.Z./.Y 1 , , , , , , & > , , , , , , ",
"> , : , , , , , : 3 C @X>X&X5X:X].f.8.A.x.Z.U.c.9.6.z.G.x.L..X;XqX#X9X>X%X;X:X*X*X>XqX5X:XF.(.@.s , , , , , , , , , , , , , , , ",
", , , , , , , , : 4 : Y dX$X>X:X=XZ.~.Z.v.A.z.Q.F.D.D.Z./.+X#X8X;XqX;X6X:X*XeX@X#X>X$X@X[.`./ u 7 ; , , , , , , , , , , , , : , ",
", , , , , , & , , > ; r y.tX>XiXuX'.Z.v.C.D.Q.D.S.Z.D.`.*X%X&X5X9X9X#X:XqX:X9X$X%X:XaX*Xu.T 3 & ; : , , , , , , , , , , , , , , ",
", & , , , , , , , : # 3 b E @.3.C.@X,XoXQ.S.D.S.v.M.OX+XeX*X.X:XqX@XqX=X:XqX2XaXaX=Xa.O.Z 3 1 & , , : , , , , , , , , , , , , , ",
", , , , , : , , , , , : : 8 4 3 b v R *.z.-XJ.oX>XtX5X$X].*XpX6X>X1XeX9X*X$XC.4.R b c 4 3 # , , , > , , , , & , : , , , , , , , ",
", , , , , , , , , , > , , o # 1 , X 3 > q :.qXh.,.X.P S K T X.F.G.S.9.*.] E x : 3 o , , o , , , , , , , , , , , , , , , , , : , ",
", , , , , , , , , , , , , , , & , , , , : r ' M r 9 + , o > z C I v h e 3 ; 4 , , , , , , , , , , , , , , , , , , , , , , , , , ",
", , ; , , , , , , , , , , , , , , , , , o 4 > 4 o # , > , , 3 1 4 , o o : , : , , , , , , , , , , , , , , , , , , , , : , , , , ",
", , , , , , , , , , , , , , , , , , , , , & + o > , & , , , + o & : , , , , , , , , , , , , , , , , & , : , , , , , , , , , # , ",
"& , , , , , , > , , , , , , , , , , , , , , , , , , , , , , , , , , , , , , , , , , > , , , , , , , , , > , , , , , , , , , , , ",
", , , , , , + , , , , , , , , , , , , , , , , , , , , , , , , , , , , , , , , , : , , , , , : , , , , , , , , , , , , , , , , , "
};
